<svg xmlns="http://www.w3.org/2000/svg" width="560" height="150" viewBox="0 0 560 150">
  <defs>
    <linearGradient id="hg1" x1="0%" y1="0%" x2="100%" y2="100%">
      <stop offset="0%" style="stop-color:#0d9488" />
      <stop offset="100%" style="stop-color:#059669" />
    </linearGradient>
    <linearGradient id="hg2" x1="0%" y1="0%" x2="100%" y2="100%">
      <stop offset="0%" style="stop-color:#f59e0b" />
      <stop offset="100%" style="stop-color:#ea580c" />
    </linearGradient>
    <style>
      .brand-h { font-family: 'Segoe UI', system-ui, sans-serif; font-weight: 800; font-size: 62px; letter-spacing: -1.5px; }
      .tag-h { font-family: 'Segoe UI', system-ui, sans-serif; font-size: 15px; font-weight: 600; letter-spacing: 2px; fill: #64748b; }
    </style>
  </defs>

  <!-- Icon (biopay_icon.svg artwork, scaled) -->
  <g transform="translate(10, 10) scale(0.9)">
    <rect width="140" height="140" rx="28" fill="url(#hg1)"/>
    <g fill="none" stroke="white" stroke-width="2.5" stroke-linecap="round">
      <ellipse cx="70" cy="68" rx="8" ry="10" stroke-width="2.5"/>
      <ellipse cx="70" cy="68" rx="16" ry="20"/>
      <ellipse cx="70" cy="68" rx="24" ry="28"/>
      <ellipse cx="70" cy="68" rx="32" ry="36"/>
      <ellipse cx="70" cy="68" rx="40" ry="44"/>
      <path d="M 38 70 Q 38 45 55 38"/>
      <path d="M 32 70 Q 32 38 55 28"/>
      <path d="M 26 70 Q 26 32 55 20"/>
      <path d="M 102 70 Q 102 45 85 38"/>
      <path d="M 108 70 Q 108 38 85 28"/>
      <path d="M 114 70 Q 114 32 85 20"/>
      <path d="M 50 100 Q 70 118 90 100"/>
      <path d="M 42 105 Q 70 128 98 105"/>
      <path d="M 34 108 Q 70 138 106 108"/>
      <path d="M 30 60 Q 20 70 30 80"/>
      <path d="M 110 60 Q 120 70 110 80"/>
    </g>
    <rect x="85" y="85" width="38" height="28" rx="6" fill="url(#hg2)" opacity="0.95" transform="rotate(-12 104 99)"/>
    <rect x="90" y="92" width="20" height="3" rx="1.5" fill="white" opacity="0.9" transform="rotate(-12 104 99)"/>
    <rect x="90" y="98" width="14" height="2" rx="1" fill="white" opacity="0.6" transform="rotate(-12 104 99)"/>
    <circle cx="108" cy="108" r="14" fill="white" stroke="url(#hg2)" stroke-width="2.5"/>
    <path d="M 101 108 L 106 113 L 115 104" fill="none" stroke="url(#hg2)" stroke-width="2.5" stroke-linecap="round" stroke-linejoin="round"/>
  </g>

  <!-- Wordmark -->
  <text x="168" y="95" class="brand-h"><tspan fill="#0f766e">Bio</tspan><tspan fill="#059669">Pay</tspan></text>
  <text x="170" y="122" class="tag-h">BIOMETRIC PAYMENT SOLUTIONS</text>
</svg>
